<svg width="198" height="80" viewBox="0 0 198 80" fill="none" xmlns="http://www.w3.org/2000/svg">
<path d="M121.381 41.454H127.745C127.827 41.4572 127.906 41.4304 127.97 41.3783C128.033 41.3263 128.077 41.2525 128.092 41.1704C129.46 34.8163 130.139 28.3257 130.114 21.8176V14.9086C130.114 14.8121 130.077 14.7196 130.011 14.6514C129.944 14.5832 129.854 14.5449 129.761 14.5449H99.3536C99.2598 14.5449 99.1699 14.5832 99.1036 14.6514C99.0373 14.7196 99 14.8121 99 14.9086V21.454C99 21.5505 99.0373 21.6429 99.1036 21.7111C99.1699 21.7793 99.2598 21.8176 99.3536 21.8176H123.043C123.043 32.7267 121.459 39.1776 121.035 41.0395C121.026 41.0909 121.029 41.1436 121.043 41.1938C121.056 41.244 121.081 41.2905 121.114 41.33C121.147 41.3695 121.188 41.4011 121.234 41.4225C121.28 41.444 121.33 41.4547 121.381 41.454Z" fill="#25B9B9"/>
<path d="M114.203 32.7275H107.838C107.745 32.7275 107.655 32.7659 107.588 32.8341C107.522 32.9022 107.485 32.9947 107.485 33.0912V47.273H92.2813C92.1875 47.273 92.0976 47.3113 92.0313 47.3795C91.965 47.4477 91.9277 47.5402 91.9277 47.6366V54.1821C91.9277 54.2785 91.965 54.371 92.0313 54.4392C92.0976 54.5074 92.1875 54.5457 92.2813 54.5457H134.356C134.424 54.5461 134.489 54.5264 134.546 54.4889C134.602 54.4515 134.647 54.3979 134.675 54.3348L137.645 47.7894C137.669 47.7342 137.68 47.6734 137.676 47.6127C137.673 47.5521 137.654 47.4933 137.622 47.4419C137.591 47.3906 137.547 47.3482 137.495 47.3187C137.444 47.2892 137.385 47.2735 137.326 47.273H114.556V33.0912C114.556 32.9947 114.519 32.9022 114.453 32.8341C114.386 32.7659 114.297 32.7275 114.203 32.7275Z" fill="#25B9B9"/>
<path d="M164.41 40C161.963 40 159.57 40.7464 157.535 42.1449C155.5 43.5434 153.914 45.5312 152.977 47.8568C152.041 50.1824 151.795 52.7414 152.273 55.2102C152.75 57.6791 153.929 59.9469 155.66 61.7268C157.39 63.5068 159.595 64.7189 161.996 65.21C164.396 65.7011 166.885 65.4491 169.146 64.4858C171.407 63.5225 173.34 61.8912 174.7 59.7982C176.059 57.7052 176.785 55.2445 176.785 52.7273C176.783 49.3524 175.479 46.1163 173.159 43.7298C170.838 41.3434 167.692 40.0019 164.41 40ZM164.41 58.1818C163.361 58.1818 162.336 57.8619 161.464 57.2626C160.591 56.6632 159.912 55.8113 159.51 54.8146C159.109 53.8179 159.004 52.7212 159.208 51.6631C159.413 50.6051 159.918 49.6332 160.66 48.8703C161.402 48.1075 162.347 47.588 163.376 47.3775C164.404 47.1671 165.471 47.2751 166.44 47.6879C167.409 48.1008 168.237 48.7999 168.82 49.6969C169.403 50.5939 169.714 51.6485 169.714 52.7273C169.714 54.1739 169.155 55.5613 168.16 56.5842C167.166 57.6071 165.817 58.1818 164.41 58.1818Z" fill="#25B9B9"/>
<path d="M176.786 22.5449V14.9086C176.786 14.8121 176.749 14.7196 176.683 14.6514C176.616 14.5832 176.526 14.5449 176.433 14.5449H170.068C169.975 14.5449 169.885 14.5832 169.818 14.6514C169.752 14.7196 169.715 14.8121 169.715 14.9086V37.454C169.715 37.5505 169.752 37.6429 169.818 37.7111C169.885 37.7793 169.975 37.8176 170.068 37.8176H176.433C176.526 37.8176 176.616 37.7793 176.683 37.7111C176.749 37.6429 176.786 37.5505 176.786 37.454V29.8176H180.322C180.389 29.818 180.455 29.7983 180.512 29.7608C180.568 29.7234 180.613 29.6698 180.64 29.6067L183.61 23.0613C183.635 23.0061 183.646 22.9454 183.642 22.8847C183.638 22.824 183.62 22.7653 183.588 22.7139C183.556 22.6625 183.513 22.6201 183.461 22.5906C183.409 22.5611 183.351 22.5454 183.292 22.5449H176.786Z" fill="#25B9B9"/>
<path d="M164.763 37.454V14.9086C164.763 14.8121 164.726 14.7196 164.66 14.6514C164.594 14.5832 164.504 14.5449 164.41 14.5449H158.046C157.952 14.5449 157.862 14.5832 157.796 14.6514C157.729 14.7196 157.692 14.8121 157.692 14.9086V19.6358H148.499V14.9086C148.499 14.8121 148.462 14.7196 148.396 14.6514C148.329 14.5832 148.239 14.5449 148.146 14.5449H141.781C141.688 14.5449 141.598 14.5832 141.531 14.6514C141.465 14.7196 141.428 14.8121 141.428 14.9086V37.454C141.428 37.5505 141.465 37.6429 141.531 37.7111C141.598 37.7793 141.688 37.8176 141.781 37.8176H164.41C164.504 37.8176 164.594 37.7793 164.66 37.7111C164.726 37.6429 164.763 37.5505 164.763 37.454ZM148.499 26.1813H157.692V31.2722H148.499V26.1813Z" fill="#25B9B9"/>
<path d="M70.5584 22.5456H72.7152C72.7879 22.5456 72.8588 22.5225 72.9182 22.4796C72.9777 22.4366 73.0229 22.3759 73.0476 22.3056L75.6216 15.0329C75.6409 14.978 75.647 14.9191 75.6396 14.8613C75.6321 14.8034 75.6111 14.7482 75.5785 14.7004C75.5459 14.6526 75.5026 14.6136 75.4523 14.5867C75.4019 14.5597 75.346 14.5456 75.2892 14.5456H65.863C65.7903 14.5457 65.7195 14.5687 65.66 14.6117C65.6005 14.6546 65.5554 14.7153 65.5307 14.7856L60.2554 29.6802C59.5486 27.893 58.6218 26.2065 57.4975 24.662C55.203 21.4739 52.2034 18.8935 48.7468 17.1344C45.2902 15.3752 41.476 14.4878 37.6197 14.5456C24.2335 14.5456 14.1426 24.5674 14.1426 37.8183C14.1426 49.222 22.4869 58.182 33.1435 58.182C41.6292 58.182 48.6582 52.1965 50.0301 44.3638C50.1927 43.4547 51.1332 37.0911 48.3683 32.5456H34.1689C34.1015 32.5443 34.0352 32.5637 33.9785 32.6012C33.9218 32.6388 33.8773 32.6929 33.8506 32.7565L30.7109 39.6656C30.6858 39.7214 30.6749 39.7828 30.6791 39.844C30.6833 39.9053 30.7026 39.9645 30.7351 40.0161C30.7675 40.0677 30.8122 40.1099 30.8649 40.1389C30.9175 40.1679 30.9765 40.1828 31.0362 40.182H42.8526V41.5638C42.8526 46.5165 38.4966 50.5456 33.1435 50.5456C26.6519 50.5456 21.5676 44.9674 21.5676 37.8474C21.5676 28.7711 28.3208 22.182 37.6197 22.182C40.3395 22.1245 43.0327 22.743 45.4703 23.9851C47.9079 25.2272 50.0179 27.0562 51.6212 29.3165C52.4839 30.4729 56.6348 36.7347 53.884 47.1129C53.6931 47.8402 53.4668 48.5675 53.2122 49.3311L51.9747 52.9311H52.0313L50.3483 57.6729C50.329 57.7278 50.3228 57.7867 50.3303 57.8445C50.3378 57.9024 50.3587 57.9576 50.3913 58.0054C50.4239 58.0532 50.4673 58.0922 50.5176 58.1191C50.568 58.1461 50.6239 58.1601 50.6807 58.1601H57.7097C57.7821 58.1591 57.8525 58.1357 57.9118 58.0928C57.9711 58.05 58.0165 57.9899 58.042 57.9202L58.9189 55.4402H58.9684L60.2129 51.8402L60.4675 51.0402L70.5584 22.5456Z" fill="#25B9B9"/>
<path d="M87.8907 14.5449H78.4928C78.4201 14.545 78.3493 14.568 78.2898 14.611C78.2303 14.6539 78.1852 14.7146 78.1605 14.7849L62.9781 57.694C62.9588 57.7489 62.9526 57.8078 62.9601 57.8656C62.9676 57.9235 62.9885 57.9787 63.0211 58.0265C63.0537 58.0743 63.0971 58.1133 63.1474 58.1402C63.1978 58.1672 63.2537 58.1813 63.3105 58.1813H70.3324C70.405 58.1812 70.4759 58.1582 70.5354 58.1152C70.5949 58.0723 70.64 58.0115 70.6647 57.9413L83.16 22.5449H85.3167C85.3892 22.5439 85.4596 22.5204 85.5189 22.4776C85.5782 22.4348 85.6235 22.3746 85.6491 22.3049L88.2231 15.0322C88.2424 14.9773 88.2486 14.9184 88.2411 14.8606C88.2336 14.8027 88.2126 14.7475 88.18 14.6997C88.1474 14.6519 88.1041 14.6129 88.0538 14.586C88.0034 14.559 87.9475 14.5449 87.8907 14.5449Z" fill="#25B9B9"/>
</svg>
